# xmcd
#
# Track frame offsets: 
#        150
#        21285
#        45412
#        57397
#        73425
#        85712
#        98932
#        114977
#        132065
#        148022
#        174760
#        191135
#        207617
#        228075
#        249292
#        268215
#        292780
#        314677
#
# Disc length: 4642 seconds
#
# Revision: 1
# Processed by: cddbd v1.5.2PL0 Copyright (c) Steve Scherf et al.
# Submitted via: ExactAudioCopy v1.0b4
#
DISCID=06122012
DTITLE=Various Artist - Carry On Kinky Beats
DYEAR=2001
DGENRE=Electronic
TTITLE0=Depth Charge - Harley Davidson
TTITLE1=Love Unlimited Orchestra - Strange Games and Things
TTITLE2=Booker T and The Mg's - Slum Baby
TTITLE3=Marlena Shaw - Let's Wade In The Water
TTITLE4=Shirley Ellis - The Clapping Song
TTITLE5=Barbed Wire - Soul Mission
TTITLE6=Primal Scream - The Revenge Of The Hammond Connection
TTITLE7=Ursula 1000 - Hip Length
TTITLE8=Avenue A - Swing It Back
TTITLE9=Puddu Varano - On A Sunny Day
TTITLE10=Teenage Fanclub - Kickabout
TTITLE11=Patti Jo - Make Me Believe In You
TTITLE12=Don Sebesky - Guru Vin
TTITLE13=Nicolas Conte - Missione A Bombay
TTITLE14=White Rabbit - Super Tramp
TTITLE15=Scammers - Sally's Walk
TTITLE16=Beatz Militia - Sunshine Cocktail
TTITLE17=Pierre Henry - Psyche Rock (Fatboy Slim Malpaso Mix)
EXTD=
EXTT0=
EXTT1=
EXTT2=
EXTT3=
EXTT4=
EXTT5=
EXTT6=
EXTT7=
EXTT8=
EXTT9=
EXTT10=
EXTT11=
EXTT12=
EXTT13=
EXTT14=
EXTT15=
EXTT16=
EXTT17=
PLAYORDER=
